<svg width="20" height="15" viewBox="0 0 20 15" fill="none" xmlns="http://www.w3.org/2000/svg">
<g id="Artboard">
<path id="Path" fill-rule="evenodd" clip-rule="evenodd" d="M1.3749 6.4574C6.74359 4.34056 10.3236 2.945 12.1148 2.27074C17.2292 0.345581 18.2919 0.0111605 18.9846 0.000117741C19.1369 -0.00231099 19.4776 0.031858 19.6982 0.19389C19.8845 0.330707 19.9358 0.515527 19.9603 0.645244C19.9848 0.774961 20.0154 1.07046 19.9911 1.30136C19.714 3.93675 18.5147 10.3322 17.9046 13.2838C17.6465 14.5328 17.1382 14.9516 16.6461 14.9926C15.5766 15.0816 14.7645 14.3529 13.7287 13.7384C12.1078 12.7769 11.1921 12.1783 9.61879 11.24C7.80053 10.1556 8.97923 9.55964 10.0155 8.58562C10.2866 8.33071 14.9987 4.45188 15.0899 4.10001C15.1013 4.05601 15.1119 3.89197 15.0042 3.80535C14.8965 3.71873 14.7376 3.74835 14.6229 3.77191C14.4604 3.8053 11.871 5.35418 6.85486 8.41854C6.11988 8.87529 5.45416 9.09783 4.8577 9.08617C4.20015 9.07331 2.93528 8.7497 1.99498 8.47308C0.84166 8.1338 -0.074973 7.95442 0.00484519 7.37821C0.0464194 7.07809 0.503103 6.77115 1.3749 6.4574Z" fill="url(#paint0_linear_414_32401)"/>
</g>
<defs>
<linearGradient id="paint0_linear_414_32401" x1="19.6685" y1="0.1" x2="9.93216" y2="11.8034" gradientUnits="userSpaceOnUse">
<stop stop-color="#475361"/>
<stop offset="1" stop-color="#1D1D1D"/>
</linearGradient>
</defs>
</svg>
