<svg width="24" height="24" viewBox="0 0 24 24" fill="none" xmlns="http://www.w3.org/2000/svg">
<g id="Calendar">
<path id="Vector" d="M21.2 3.8H17V2.2C17 2.09 16.91 2 16.8 2H15.4C15.29 2 15.2 2.09 15.2 2.2V3.8H8.8V2.2C8.8 2.09 8.71 2 8.6 2H7.2C7.09 2 7 2.09 7 2.2V3.8H2.8C2.3575 3.8 2 4.1575 2 4.6V21.2C2 21.6425 2.3575 22 2.8 22H21.2C21.6425 22 22 21.6425 22 21.2V4.6C22 4.1575 21.6425 3.8 21.2 3.8ZM20.2 20.2H3.8V10.7H20.2V20.2ZM3.8 9V5.6H7V6.8C7 6.91 7.09 7 7.2 7H8.6C8.71 7 8.8 6.91 8.8 6.8V5.6H15.2V6.8C15.2 6.91 15.29 7 15.4 7H16.8C16.91 7 17 6.91 17 6.8V5.6H20.2V9H3.8Z" fill="#464F59"/>
</g>
</svg>
