<svg width="24" height="24" viewBox="0 0 24 24" fill="none" xmlns="http://www.w3.org/2000/svg">
<g id="checkbox-multiple-marked-outline">
<path id="Vector" d="M20 16V11C20 10.4477 20.4477 10 21 10C21.5523 10 22 10.4477 22 11V16C22 16.5304 21.7893 17.0391 21.4142 17.4142C21.0391 17.7893 20.5304 18 20 18H8C6.89 18 6 17.1 6 16V4C6 2.89 6.89 2 8 2H15C15.5523 2 16 2.44772 16 3C16 3.55228 15.5523 4 15 4H8V16H20ZM10.91 7.08L14 10.17L20.59 3.58L22 5L14 13L9.5 8.5L10.91 7.08ZM15 20C15.5523 20 16 20.4477 16 21V22H4C3.46957 22 2.96086 21.7893 2.58579 21.4142C2.21071 21.0391 2 20.5304 2 20V8C2 7.44772 2.44772 7 3 7C3.55228 7 4 7.44772 4 8V20H15Z" fill="#262B31"/>
</g>
</svg>
