<svg width="24" height="24" viewBox="0 0 24 24" fill="none" xmlns="http://www.w3.org/2000/svg">
<g id="Close">
<path id="shape" d="M17.5 7.72222C17.8375 7.38471 17.8375 6.83751 17.5 6.5C17.1625 6.16249 16.6153 6.16249 16.2778 6.5L12 10.7778L7.72222 6.5C7.38471 6.16249 6.83751 6.16249 6.5 6.5C6.16249 6.83751 6.16249 7.38472 6.5 7.72222L10.7778 12L6.5 16.2778C6.16249 16.6153 6.16249 17.1625 6.5 17.5C6.83751 17.8375 7.38472 17.8375 7.72222 17.5L12 13.2222L16.2778 17.5C16.6153 17.8375 17.1625 17.8375 17.5 17.5C17.8375 17.1625 17.8375 16.6153 17.5 16.2778L13.2222 12L17.5 7.72222Z" fill="#262B31"/>
</g>
</svg>
