<svg width="24" height="24" viewBox="0 0 24 24" fill="none" xmlns="http://www.w3.org/2000/svg">
<g id="delete-forever">
<path id="Vector" d="M5.14286 19.7778C5.14286 20.3671 5.38367 20.9324 5.81233 21.3491C6.24098 21.7659 6.82236 22 7.42857 22H16.5714C17.1776 22 17.759 21.7659 18.1877 21.3491C18.6163 20.9324 18.8571 20.3671 18.8571 19.7778V6.44444H5.14286V19.7778ZM7.95429 11.8667L9.56571 10.3L12 12.6556L14.4229 10.3L16.0343 11.8667L13.6114 14.2222L16.0343 16.5778L14.4229 18.1444L12 15.7889L9.57714 18.1444L7.96571 16.5778L10.3886 14.2222L7.95429 11.8667ZM16 3.11111L14.8571 2H9.14286L8 3.11111H4V5.33333H20V3.11111H16Z" fill="#687281"/>
</g>
</svg>
