<svg width="23" height="24" viewBox="0 0 23 24" fill="none" xmlns="http://www.w3.org/2000/svg">
<g id="edit">
<path id="Vector" d="M9.5 4H2.88889C2.38792 4 1.90748 4.19901 1.55324 4.55324C1.19901 4.90748 1 5.38792 1 5.88889V19.1111C1 19.6121 1.19901 20.0925 1.55324 20.4468C1.90748 20.801 2.38792 21 2.88889 21H16.1111C16.6121 21 17.0925 20.801 17.4468 20.4468C17.801 20.0925 18 19.6121 18 19.1111V12.5" stroke="#262B31" stroke-width="2" stroke-linecap="round" stroke-linejoin="round"/>
<path id="Vector_2" d="M16.6662 3.48399C17.0325 3.1741 17.5292 3 18.0471 3C18.5651 3 19.0618 3.1741 19.428 3.48399C19.7943 3.79388 20 4.21418 20 4.65243C20 5.09068 19.7943 5.51099 19.428 5.82088L10.6824 13.221L7 14L7.92059 10.8841L16.6662 3.48399Z" stroke="#262B31" stroke-width="2" stroke-linecap="round" stroke-linejoin="round"/>
</g>
</svg>
