<svg width="3" height="14" viewBox="0 0 3 14" fill="none" xmlns="http://www.w3.org/2000/svg">
<path id="Vector" d="M0 12.7416C0 13.0753 0.158036 13.3954 0.43934 13.6314C0.720645 13.8674 1.10218 14 1.5 14C1.89782 14 2.27936 13.8674 2.56066 13.6314C2.84196 13.3954 3 13.0753 3 12.7416C3 12.4078 2.84196 12.0877 2.56066 11.8517C2.27936 11.6157 1.89782 11.4831 1.5 11.4831C1.10218 11.4831 0.720645 11.6157 0.43934 11.8517C0.158036 12.0877 0 12.4078 0 12.7416ZM0.75 9.4382H2.25C2.35313 9.4382 2.4375 9.36742 2.4375 9.2809V0.157303C2.4375 0.0707865 2.35313 0 2.25 0H0.75C0.646875 0 0.5625 0.0707865 0.5625 0.157303V9.2809C0.5625 9.36742 0.646875 9.4382 0.75 9.4382Z" fill="#EF3911"/>
</svg>
