<svg width="24" height="24" viewBox="0 0 24 24" fill="none" xmlns="http://www.w3.org/2000/svg">
<g id="exit-to-app">
<path id="Vector" d="M19.7778 2H4.22222C2.98889 2 2 2.98889 2 4.22222V7.66667C2 8.21895 2.44772 8.66667 3 8.66667C3.55228 8.66667 4 8.21895 4 7.66667V4H20V20H4V16.3333C4 15.781 3.55228 15.3333 3 15.3333C2.44772 15.3333 2 15.781 2 16.3333V19.7778C2 20.3671 2.23413 20.9324 2.65087 21.3491C3.06762 21.7659 3.63285 22 4.22222 22H19.7778C20.3671 22 20.9324 21.7659 21.3491 21.3491C21.7659 20.9324 22 20.3671 22 19.7778V4.22222C22 2.98889 21 2 19.7778 2ZM10.4894 15.3497C10.1544 15.6876 10.1804 16.2397 10.5456 16.5446C10.8578 16.8054 11.3148 16.7948 11.6146 16.5199L16.5455 12L11.6097 7.47556C11.3123 7.20291 10.8594 7.19123 10.5483 7.44816C10.182 7.75063 10.1541 8.30211 10.4879 8.64002L12.9091 11.0909H2.90909C2.40701 11.0909 2 11.4979 2 12C2 12.5021 2.40701 12.9091 2.90909 12.9091H12.9091L10.4894 15.3497Z" fill="#262B31"/>
</g>
</svg>
