<svg width="24" height="24" viewBox="0 0 24 24" fill="none" xmlns="http://www.w3.org/2000/svg">
<path d="M1.99951 5.00586H13.3859" stroke="#262B31" stroke-width="2" stroke-linecap="round"/>
<path d="M21.5001 5.1089C21.5001 6.57147 20.3728 7.71779 19.0297 7.71779C17.6866 7.71779 16.5593 6.57147 16.5593 5.1089C16.5593 3.64632 17.6866 2.5 19.0297 2.5C20.3728 2.5 21.5001 3.64632 21.5001 5.1089Z" fill="#262B31" stroke="#262B31"/>
<path d="M13.3857 11.9482H20.9107" stroke="#262B31" stroke-width="2" stroke-linecap="round"/>
<path d="M1.99951 18.8916H9.52443" stroke="#262B31" stroke-width="2" stroke-linecap="round"/>
<path d="M13.3857 18.8916H20.9107" stroke="#262B31" stroke-width="2" stroke-linecap="round"/>
<path d="M1.99951 11.9482H6.95012" stroke="#262B31" stroke-width="2" stroke-linecap="round"/>
<path d="M10.3116 11.9487C10.3116 13.4113 9.18432 14.5576 7.84121 14.5576C6.4981 14.5576 5.37085 13.4113 5.37085 11.9487C5.37085 10.4862 6.4981 9.33984 7.84121 9.33984C9.18432 9.33984 10.3116 10.4862 10.3116 11.9487Z" fill="#262B31" stroke="#262B31"/>
<path d="M12.6982 18.8911C12.6982 17.4285 13.8254 16.2822 15.1686 16.2822C16.5117 16.2822 17.6389 17.4285 17.6389 18.8911C17.6389 20.3537 16.5117 21.5 15.1686 21.5C13.8254 21.5 12.6982 20.3537 12.6982 18.8911Z" fill="#262B31" stroke="#262B31"/>
</svg>
