<svg width="14" height="17" viewBox="0 0 14 17" fill="none" xmlns="http://www.w3.org/2000/svg">
<path d="M12.1723 3.85333C12.7394 3.00333 13.1175 2.09667 13.1175 2.09667C14.0627 3.74 13.4956 4.73167 13.0905 5.04333C12.5234 5.49667 11.5242 4.845 12.1723 3.85333ZM1.85652 3.57C1.28941 2.57833 1.2354 1.33167 1.2354 1.33167C-0.114835 3.45667 0.398256 4.64667 0.857338 4.98667C1.45144 5.46833 2.47763 4.73167 1.85652 3.57ZM4.98907 1.36C5.07009 0.68 4.80004 0 4.80004 0C6.06926 0.878333 6.06926 1.615 5.90723 1.92667C5.66419 2.295 4.90806 2.125 4.98907 1.36Z" fill="#FF9D33"/>
<path d="M13.5177 6.85667C13.5177 6.85667 12.7075 7.65 11.3303 8.585C10.9522 6.29 9.89903 3.45667 7.84667 0C7.84667 0 7.17155 3.71167 4.93015 7.19667C3.95798 5.61 3.5259 4.36333 3.5259 4.36333C-3.49534 11.7583 2.33769 17 6.01034 17C10.7092 17 14.8409 14.62 13.5177 6.85667Z" fill="#FF9D33"/>
<path d="M10.9682 13.43C11.3733 12.495 11.6703 11.2767 11.7244 9.74667C11.7244 9.74667 11.1573 10.2567 10.1851 10.9083C9.91503 9.37833 9.1859 7.50833 7.75465 5.185C7.75465 5.185 7.29557 7.65 5.72929 10.0017C5.05417 8.95333 4.75712 8.10333 4.75712 8.10333C3.59591 10.03 3.13683 11.56 3.10983 12.7783C2.46171 12.5233 2.05664 12.325 2.05664 12.325C3.16384 15.7817 5.45924 16.5467 6.48543 16.5467C8.32175 16.5467 10.1851 15.98 12.0214 13.2317C12.0214 13.2033 11.6163 13.3167 10.9682 13.43Z" fill="#FFCE31"/>
<path d="M4.27096 11.8717C4.27096 11.8717 5.02709 12.9483 5.59419 12.6933C5.59419 12.6933 6.67439 10.9083 8.24066 9.91666C8.24066 9.91666 7.91661 12.6367 8.29467 13.1183C8.78076 13.77 10.104 12.41 10.104 12.41C10.104 14.025 8.4297 16.0367 6.91743 16.0367C5.45917 16.0367 3.3528 14.28 4.27096 11.8717Z" fill="#FFDF85"/>
</svg>
