<svg  id='f1' xmlns="http://www.w3.org/2000/svg">
<path id="Vector" d="M12.1723 3.85333C12.7394 3.00333 13.1175 2.09667 13.1175 2.09667C14.0627 3.74 13.4956 4.73167 13.0905 5.04333C12.5234 5.49667 11.5242 4.845 12.1723 3.85333ZM1.85652 3.57C1.28941 2.57833 1.2354 1.33167 1.2354 1.33167C-0.114835 3.45667 0.398256 4.64667 0.857338 4.98667C1.45144 5.46833 2.47763 4.73167 1.85652 3.57ZM4.98907 1.36C5.07009 0.68 4.80004 0 4.80004 0C6.06926 0.878333 6.06926 1.615 5.90723 1.92667C5.66419 2.295 4.90806 2.125 4.98907 1.36Z" fill="#FF9D33"/>
<symbol id='f2' viewBox="0 0 11 12" >
<path id="Vector" d="M8.96822 8.43C9.37329 7.495 9.67035 6.27667 9.72436 4.74667C9.72436 4.74667 9.15725 5.25667 8.18508 5.90833C7.91503 4.37833 7.1859 2.50833 5.75465 0.184998C5.75465 0.184998 5.29557 2.65 3.72929 5.00167C3.05417 3.95333 2.75712 3.10333 2.75712 3.10333C1.59591 5.03 1.13683 6.56 1.10983 7.77833C0.461713 7.52333 0.0566406 7.325 0.0566406 7.325C1.16384 10.7817 3.45924 11.5467 4.48543 11.5467C6.32175 11.5467 8.18508 10.98 10.0214 8.23167C10.0214 8.20333 9.61634 8.31667 8.96822 8.43Z" fill="#FFCE31"/>
</symbol>
<symbol id='f1' viewBox="0 0 7 8" >
<path id="Vector" d="M0.27096 2.87166C0.27096 2.87166 1.02709 3.94832 1.59419 3.69332C1.59419 3.69332 2.67439 1.90832 4.24066 0.916656C4.24066 0.916656 3.91661 3.63666 4.29467 4.11832C4.78076 4.76999 6.10399 3.40999 6.10399 3.40999C6.10399 5.02499 4.4297 7.03665 2.91743 7.03665C1.45917 7.03665 -0.647203 5.27999 0.27096 2.87166Z" fill="#FFDF85"/>
</symbol>
<use xlink:href="#f3" transform="translate(0, -21)" />
 <use xlink:href="#f1" transform="translate(0, 0)" />
  
</svg>
