<svg width="11" height="12" viewBox="0 0 11 12" fill="none" xmlns="http://www.w3.org/2000/svg">
<path id="Vector" d="M8.96822 8.43C9.37329 7.495 9.67035 6.27667 9.72436 4.74667C9.72436 4.74667 9.15725 5.25667 8.18508 5.90833C7.91503 4.37833 7.1859 2.50833 5.75465 0.184998C5.75465 0.184998 5.29557 2.65 3.72929 5.00167C3.05417 3.95333 2.75712 3.10333 2.75712 3.10333C1.59591 5.03 1.13683 6.56 1.10983 7.77833C0.461713 7.52333 0.0566406 7.325 0.0566406 7.325C1.16384 10.7817 3.45924 11.5467 4.48543 11.5467C6.32175 11.5467 8.18508 10.98 10.0214 8.23167C10.0214 8.20333 9.61634 8.31667 8.96822 8.43Z" fill="#FFCE31"/>
</svg>
