<svg width="86" height="86" viewBox="0 0 86 86" fill="none" xmlns="http://www.w3.org/2000/svg">
<g id="Icon Ierarchy">
<path id="Vector" d="M51.1563 54.5012L54.5014 51.1561C54.8372 50.8203 54.8759 50.2779 54.5918 49.8904L53.4681 48.3922C53.7652 47.8239 54.0106 47.2298 54.2043 46.597L56.0512 46.3387C56.5291 46.2741 56.8778 45.8608 56.8778 45.3829V43.9751H69.4703C77.4779 43.9751 84.0002 37.4528 84.0002 29.4453C84.0002 21.4377 77.4908 14.9154 69.4832 14.9154H67.6622C67.1326 14.9154 66.6935 15.3546 66.6935 15.8841C66.6935 16.4136 67.1326 16.8527 67.6622 16.8527H69.4832C76.4188 16.8527 82.0758 22.4968 82.0758 29.4453C82.0758 36.3938 76.4317 42.0378 69.4832 42.0378H56.8907V40.643C56.8907 40.1651 56.5291 39.7518 56.0641 39.6872L54.2172 39.4289C54.0106 38.796 53.7652 38.2019 53.4811 37.6337L54.6047 36.1355C54.8888 35.748 54.8501 35.2056 54.5143 34.8698L51.1692 31.5247C51.0033 31.3618 50.7849 31.2632 50.553 31.2466C50.3211 31.2301 50.0908 31.2966 49.9035 31.4343L48.4053 32.5579C47.837 32.2608 47.23 32.0155 46.6101 31.8217L46.3388 29.9619C46.3064 29.7319 46.1917 29.5214 46.0159 29.3694C45.8402 29.2174 45.6154 29.1343 45.3831 29.1353H40.6561C40.1782 29.1353 39.7649 29.484 39.7003 29.9619L39.4291 31.8217C38.8092 32.0155 38.2021 32.2738 37.6339 32.5579L36.1357 31.4343C35.9483 31.2966 35.7181 31.2301 35.4862 31.2466C35.2543 31.2632 35.0358 31.3618 34.87 31.5247L31.512 34.8698C31.1762 35.2056 31.1374 35.748 31.4216 36.1355L32.5452 37.6337C32.2481 38.2019 32.0027 38.809 31.809 39.4289L29.9621 39.6872C29.4842 39.7518 29.1355 40.1651 29.1355 40.643V42.0378H23.4398L25.403 40.0747C25.7775 39.7001 25.7775 39.0802 25.403 38.7056C25.0284 38.3311 24.4085 38.3311 24.0339 38.7056L20.4176 42.322C20.0431 42.6965 20.0431 43.3164 20.4176 43.691L24.0339 47.3073C24.2277 47.501 24.4731 47.5914 24.7185 47.5914C24.9639 47.5914 25.2092 47.501 25.403 47.3073C25.7775 46.9328 25.7775 46.3128 25.403 45.9383L23.4398 43.9751H29.1355V45.3829C29.1355 45.8608 29.4972 46.2741 29.9621 46.3387L31.809 46.597C32.0039 47.2148 32.2502 47.8153 32.5452 48.3922L31.4216 49.8904C31.1374 50.2779 31.1762 50.8074 31.512 51.1561L34.857 54.5012C35.1928 54.837 35.7353 54.8757 36.1228 54.5916L37.6209 53.468C38.2021 53.765 38.7962 54.0104 39.4162 54.2171L39.6874 56.0769C39.752 56.5547 40.1653 56.9035 40.6431 56.9035H45.3702C45.8481 56.9035 46.2613 56.5547 46.3259 56.0769L46.5971 54.2171C47.2042 54.0233 47.8112 53.7779 48.3924 53.468L49.8906 54.5916C50.278 54.8757 50.8205 54.837 51.1563 54.5012ZM47.992 51.479C47.1913 51.9439 46.3518 52.2927 45.4864 52.5122C45.3024 52.5611 45.1369 52.6632 45.0106 52.8056C44.8843 52.948 44.8027 53.1245 44.7761 53.313L44.5436 54.9532H41.4956L41.2631 53.313C41.2365 53.1245 41.1549 52.948 41.0286 52.8056C40.9022 52.6632 40.7367 52.5611 40.5527 52.5122C39.6874 52.2797 38.8479 51.931 38.0472 51.479C37.8815 51.3844 37.6919 51.3402 37.5016 51.3517C37.3112 51.3631 37.1283 51.4298 36.9752 51.5436L35.6449 52.5381L33.488 50.3812L34.4825 49.0509C34.715 48.7409 34.7408 48.3147 34.5342 47.9789C34.0821 47.2298 33.7334 46.3903 33.5009 45.4862C33.452 45.3022 33.35 45.1367 33.2076 45.0104C33.0652 44.8841 32.8887 44.8025 32.7002 44.7759L31.0599 44.5434V41.4954L32.7002 41.2629C33.0876 41.2112 33.3976 40.9271 33.5009 40.5525C33.7334 39.6614 34.0821 38.8219 34.5342 38.0599C34.6338 37.8965 34.6822 37.7071 34.673 37.5159C34.6638 37.3248 34.5974 37.1409 34.4825 36.9879L33.488 35.6576L35.6449 33.5007L36.9752 34.4952C37.2851 34.7277 37.7114 34.7535 38.0472 34.5598C38.8092 34.1077 39.6616 33.759 40.5398 33.5266C40.7238 33.4777 40.8893 33.3756 41.0157 33.2332C41.142 33.0908 41.2236 32.9143 41.2502 32.7258L41.4827 31.0855H44.5307L44.7632 32.7258C44.8148 33.1133 45.099 33.4232 45.4735 33.5266C46.3647 33.759 47.2042 34.1077 47.9791 34.5598C48.3149 34.7535 48.7411 34.7406 49.0511 34.4952L50.3814 33.5007L52.5382 35.6576L51.5438 36.9879C51.4288 37.1409 51.3625 37.3248 51.3532 37.5159C51.344 37.7071 51.3924 37.8965 51.4921 38.0599C51.9441 38.809 52.2928 39.6485 52.5253 40.5525C52.6286 40.9271 52.9386 41.2112 53.3261 41.2629L54.9663 41.4954V44.5434L53.3261 44.7759C53.1376 44.8025 52.9611 44.8841 52.8187 45.0104C52.6762 45.1367 52.5742 45.3022 52.5253 45.4862C52.2928 46.3903 51.9441 47.2298 51.4921 47.9789C51.3924 48.1422 51.344 48.3317 51.3532 48.5228C51.3625 48.714 51.4288 48.8979 51.5438 49.0509L52.5382 50.3812L50.3814 52.5381L49.0511 51.5436C48.9005 51.4297 48.7197 51.3628 48.5313 51.3513C48.3429 51.3398 48.1553 51.3843 47.992 51.479Z" fill="#FFAE40"/>
<path id="Vector_2" d="M43.0064 36.7425C39.558 36.7425 36.7424 39.5451 36.7424 43.0065C36.7757 44.644 37.4496 46.2033 38.6195 47.3497C39.7894 48.4961 41.362 49.1381 42.9999 49.1381C44.6379 49.1381 46.2105 48.4961 47.3804 47.3497C48.5503 46.2033 49.2242 44.644 49.2575 43.0065C49.2575 39.558 46.4548 36.7425 43.0064 36.7425ZM43.0064 47.3202C40.6171 47.3202 38.6797 45.3829 38.6797 43.0065C38.6797 40.6171 40.6171 38.6798 43.0064 38.6798C44.1339 38.7074 45.206 39.1746 45.9936 39.9818C46.7813 40.789 47.2223 41.8722 47.2223 43C47.2223 44.1278 46.7813 45.211 45.9936 46.0182C45.206 46.8254 44.1339 47.2926 43.0064 47.3202ZM2.8395 19.2163L4.6864 19.4746C4.89305 20.1074 5.13844 20.7015 5.42258 21.2698L4.29894 22.768C4.0148 23.1555 4.05355 23.6979 4.38935 24.0337L7.73444 27.3788C8.07024 27.7146 8.61269 27.7534 9.00015 27.4692L10.4983 26.3456C11.0795 26.6426 11.6866 26.888 12.2936 27.0947L12.5648 28.9545C12.6294 29.4324 13.0427 29.7811 13.5205 29.7811H18.2476C18.7254 29.7811 19.1387 29.4324 19.2033 28.9545L19.4745 27.0947C20.0816 26.9009 20.6886 26.6555 21.2698 26.3456L22.768 27.4692C23.1554 27.7534 23.6979 27.7146 24.0337 27.3788L27.3788 24.0337C27.7146 23.6979 27.7533 23.1555 27.4692 22.768L26.3455 21.2698C26.6426 20.7015 26.888 20.1074 27.0817 19.4746L28.9286 19.2163C29.4065 19.1517 29.7552 18.7384 29.7552 18.2605V16.8657H59.8352L57.872 18.8288C57.4975 19.2033 57.4975 19.8233 57.872 20.1978C58.0658 20.3916 58.3112 20.482 58.5566 20.482C58.8019 20.482 59.0473 20.3916 59.2411 20.1978L62.8574 16.5815C63.0388 16.3999 63.1407 16.1537 63.1407 15.897C63.1407 15.6403 63.0388 15.3941 62.8574 15.2125L59.2411 11.5962C58.8665 11.2216 58.2466 11.2216 57.872 11.5962C57.4975 11.9707 57.4975 12.5907 57.872 12.9652L59.8352 14.9283H29.7681V13.5335C29.7681 13.0556 29.4065 12.6423 28.9415 12.5777L27.0946 12.3194C26.9009 11.6995 26.6426 11.0925 26.3585 10.5242L27.4821 9.026C27.6193 8.83846 27.6855 8.60833 27.6689 8.37657C27.6524 8.1448 27.5541 7.92643 27.3917 7.76029L24.0337 4.38936C23.8678 4.22645 23.6494 4.12789 23.4175 4.11133C23.1855 4.09476 22.9553 4.16127 22.768 4.29895L21.2698 5.4226C20.7015 5.12554 20.0945 4.88015 19.4745 4.68642L19.2033 2.8266C19.1708 2.59656 19.0561 2.38608 18.8804 2.23411C18.7047 2.08214 18.4799 1.99898 18.2476 2.00001H13.5205C13.0427 2.00001 12.6294 2.34873 12.5648 2.8266L12.2936 4.68642C11.6736 4.88015 11.0795 5.12554 10.4983 5.4226L9.00015 4.29895C8.81261 4.16178 8.58249 4.09558 8.35072 4.11213C8.11896 4.12869 7.90058 4.22692 7.73444 4.38936L4.40227 7.74737C4.05355 8.08317 4.0148 8.62562 4.31186 9.01308L5.42258 10.5113C5.13844 11.0795 4.89305 11.6737 4.6864 12.3065L2.8395 12.5648C2.36163 12.6294 2 13.0427 2 13.5206V18.2476C2 18.7384 2.36163 19.1517 2.8395 19.2163ZM3.93731 14.3601L5.57757 14.1276C5.96503 14.0759 6.275 13.7918 6.37832 13.4172C6.6108 12.5132 6.95952 11.6737 7.41155 10.9246C7.6182 10.5888 7.59237 10.1626 7.35989 9.83967L6.36541 8.5223L8.52228 6.35251L9.85257 7.34699C10.1625 7.57947 10.5887 7.6053 10.9245 7.41157C11.6866 6.95953 12.539 6.61081 13.4172 6.37834C13.6012 6.32944 13.7667 6.22741 13.893 6.08499C14.0194 5.94258 14.101 5.76609 14.1276 5.57758L14.36 3.93732H17.4081L17.6406 5.57758C17.6922 5.96504 17.9764 6.27501 18.3509 6.37834C19.2421 6.61081 20.0816 6.95953 20.8436 7.41157C21.1794 7.6053 21.6056 7.59239 21.9156 7.34699L23.2458 6.35251L25.4027 8.50938L24.4082 9.83967C24.2933 9.99265 24.2269 10.1766 24.2177 10.3677C24.2085 10.5588 24.2569 10.7483 24.3566 10.9116C24.8086 11.6737 25.1573 12.5132 25.3898 13.4043C25.4931 13.7789 25.8031 14.063 26.1906 14.1147L27.8308 14.3471V17.3952L26.1906 17.6277C26.002 17.6543 25.8256 17.7358 25.6831 17.8622C25.5407 17.9885 25.4387 18.154 25.3898 18.338C25.1573 19.2421 24.8086 20.0816 24.3566 20.8307C24.2569 20.994 24.2085 21.1835 24.2177 21.3746C24.2269 21.5657 24.2933 21.7497 24.4082 21.9027L25.4027 23.233L23.2458 25.3898L21.9156 24.3953C21.7649 24.2818 21.5841 24.2151 21.3957 24.2036C21.2074 24.1921 21.0199 24.2364 20.8565 24.3308C20.0557 24.7957 19.2162 25.1444 18.3509 25.364C18.1669 25.4129 18.0014 25.5149 17.8751 25.6573C17.7487 25.7998 17.6672 25.9762 17.6406 26.1648L17.4081 27.805H14.36L14.1276 26.1648C14.101 25.9762 14.0194 25.7998 13.893 25.6573C13.7667 25.5149 13.6012 25.4129 13.4172 25.364C12.5519 25.1444 11.7124 24.7957 10.9116 24.3308C10.7484 24.236 10.5608 24.1916 10.3723 24.2031C10.1839 24.2146 10.0031 24.2815 9.85257 24.3953L8.52228 25.4157L6.36541 23.2588L7.35989 21.9285C7.59237 21.6185 7.6182 21.1923 7.41155 20.8565C6.95952 20.1074 6.62371 19.2679 6.37832 18.3638C6.32942 18.1799 6.22739 18.0144 6.08498 17.888C5.94256 17.7617 5.76607 17.6801 5.57757 17.6535L3.93731 17.421V14.3601Z" fill="#FFAE40"/>
<path id="Vector_3" d="M15.8968 22.1352C17.134 22.1336 18.3431 21.7653 19.371 21.0767C20.3989 20.3881 21.1996 19.4101 21.6717 18.2665C22.1439 17.1229 22.2664 15.865 22.0237 14.6518C21.781 13.4385 21.1841 12.3245 20.3083 11.4506C19.4325 10.5766 18.3173 9.98192 17.1035 9.74173C15.8898 9.50155 14.6321 9.62663 13.4895 10.1012C12.3469 10.5757 11.3706 11.3784 10.6841 12.4077C9.99765 13.4371 9.63179 14.6469 9.63281 15.8841C9.63281 19.3325 12.4355 22.1352 15.8968 22.1352ZM15.8968 11.5704C16.7511 11.5714 17.5859 11.8256 18.2957 12.3008C19.0056 12.7761 19.5587 13.451 19.8851 14.2405C20.2116 15.0299 20.2967 15.8984 20.1298 16.7362C19.9629 17.574 19.5514 18.3436 18.9474 18.9476C18.3433 19.5517 17.5738 19.9632 16.736 20.1301C15.8982 20.297 15.0297 20.2118 14.2402 19.8854C13.4508 19.5589 12.7758 19.0058 12.3006 18.296C11.8253 17.5861 11.5711 16.7513 11.5701 15.897C11.5701 13.5077 13.5074 11.5704 15.8968 11.5704ZM70.1286 63.8649C66.6801 63.8649 63.8646 66.6675 63.8646 70.1289C63.8979 71.7664 64.5718 73.3257 65.7416 74.4721C66.9115 75.6185 68.4842 76.2605 70.1221 76.2605C71.76 76.2605 73.3327 75.6185 74.5026 74.4721C75.6725 73.3257 76.3463 71.7664 76.3796 70.1289C76.3796 66.6675 73.577 63.8649 70.1286 63.8649ZM70.1286 74.4426C67.7392 74.4426 65.8019 72.5053 65.8019 70.1289C65.8019 67.7395 67.7392 65.8022 70.1286 65.8022C71.2561 65.8298 72.3281 66.297 73.1158 67.1042C73.9035 67.9114 74.3444 68.9946 74.3444 70.1224C74.3444 71.2502 73.9035 72.3334 73.1158 73.1406C72.3281 73.9478 71.2561 74.415 70.1286 74.4426Z" fill="#FFAE40"/>
<path id="Vector_4" d="M83.1733 66.7967L81.3264 66.5384C81.1327 65.9184 80.8744 65.3114 80.5902 64.7431L81.7139 63.2449C81.998 62.8575 81.9593 62.315 81.6235 61.9792L78.2784 58.6341C78.1125 58.4712 77.8941 58.3727 77.6621 58.3561C77.4302 58.3395 77.2 58.406 77.0127 58.5437L75.5145 59.6674C74.9462 59.3703 74.3392 59.1249 73.7192 58.9312L73.448 57.0714C73.4155 56.8413 73.3008 56.6308 73.1251 56.4789C72.9494 56.3269 72.7246 56.2437 72.4923 56.2448H67.7652C67.2874 56.2448 66.8741 56.5935 66.8095 57.0714L66.5383 58.9312C65.9183 59.1249 65.3113 59.3832 64.743 59.6674L63.2448 58.5437C63.0575 58.406 62.8273 58.3395 62.5954 58.3561C62.3634 58.3727 62.145 58.4712 61.9791 58.6341L58.634 61.9792C58.2982 62.315 58.2595 62.8575 58.5436 63.2449L59.6673 64.7431C59.3702 65.3114 59.1248 65.9055 58.9311 66.5384L57.0842 66.7967C56.6063 66.8612 56.2576 67.2745 56.2576 67.7524V69.1473H49.5803C49.0508 69.1473 48.6117 69.5864 48.6117 70.1159C48.6117 70.6455 49.0508 71.0846 49.5803 71.0846H56.2576V72.4795C56.2576 72.9573 56.6192 73.3706 57.0842 73.4352L58.9311 73.6935C59.1377 74.3264 59.3831 74.9205 59.6673 75.4888L58.5436 76.9869C58.2595 77.3744 58.2982 77.9169 58.634 78.2527L61.9791 81.5977C62.3149 81.9335 62.8574 81.9723 63.2448 81.6882L64.743 80.5645C65.3242 80.8616 65.9183 81.107 66.5383 81.3136L66.8095 83.1734C66.8741 83.6513 67.2874 84 67.7652 84H72.4923C72.9701 84 73.3834 83.6513 73.448 83.1734L73.7192 81.3136C74.3263 81.1199 74.9333 80.8745 75.5145 80.5645L77.0127 81.6882C77.4001 81.9723 77.9426 81.9335 78.2784 81.5977L81.6235 78.2527C81.9593 77.9169 81.998 77.3744 81.7139 76.9869L80.5902 75.4888C80.8873 74.9205 81.1327 74.3264 81.3264 73.6935L83.1733 73.4352C83.6512 73.3706 83.9999 72.9573 83.9999 72.4795V67.7524C84.0034 67.5194 83.9212 67.2933 83.7687 67.117C83.6163 66.9408 83.4044 66.8268 83.1733 66.7967ZM82.0755 71.6529L80.4352 71.8854C80.2467 71.912 80.0702 71.9935 79.9278 72.1199C79.7854 72.2462 79.6834 72.4117 79.6345 72.5957C79.402 73.4998 79.0533 74.3393 78.6013 75.0884C78.5016 75.2517 78.4532 75.4412 78.4624 75.6323C78.4716 75.8234 78.538 76.0074 78.6529 76.1604L79.6474 77.4906L77.4905 79.6475L76.1602 78.653C76.0073 78.539 75.8243 78.4721 75.6339 78.4606C75.4435 78.4492 75.2538 78.4936 75.0883 78.5885C74.2875 79.0534 73.448 79.4021 72.5827 79.6217C72.3987 79.6706 72.2332 79.7726 72.1068 79.915C71.9805 80.0574 71.8989 80.2339 71.8723 80.4224L71.6398 82.0627H68.5918L68.3593 80.4224C68.3327 80.2339 68.2512 80.0574 68.1248 79.915C67.9985 79.7726 67.833 79.6706 67.649 79.6217C66.7837 79.3892 65.9442 79.0405 65.1434 78.5885C64.9778 78.4939 64.7882 78.4497 64.5978 78.4611C64.4074 78.4726 64.2245 78.5393 64.0714 78.653L62.7411 79.6475L60.5843 77.4906L61.5788 76.1604C61.8112 75.8504 61.8371 75.4242 61.6304 75.0884C61.1784 74.3393 60.8426 73.4998 60.5972 72.5957C60.5483 72.4117 60.4463 72.2462 60.3038 72.1199C60.1614 71.9935 59.9849 71.912 59.7964 71.8854L58.1562 71.6529V68.6048L59.7964 68.3724C60.1839 68.3207 60.4939 68.0366 60.5972 67.662C60.8297 66.7708 61.1784 65.9313 61.6304 65.1693C61.7301 65.006 61.7785 64.8165 61.7693 64.6254C61.76 64.4343 61.6937 64.2503 61.5788 64.0974L60.5843 62.7671L62.7411 60.6102L64.0714 61.6047C64.3814 61.8372 64.8076 61.863 65.1434 61.6693C65.9054 61.2172 66.7578 60.8685 67.6361 60.636C67.8201 60.5871 67.9856 60.4851 68.1119 60.3427C68.2382 60.2003 68.3198 60.0238 68.3464 59.8353L68.5789 58.195H71.6269L71.8594 59.8353C71.9111 60.2227 72.1952 60.5327 72.5698 60.636C73.4609 60.8685 74.3004 61.2172 75.0624 61.6693C75.3982 61.863 75.8244 61.8501 76.1344 61.6047L77.4647 60.6102L79.6216 62.7671L78.6271 64.0974C78.5122 64.2503 78.4458 64.4343 78.4366 64.6254C78.4274 64.8165 78.4757 65.006 78.5754 65.1693C79.0275 65.9313 79.3762 66.7708 79.6087 67.662C79.712 68.0366 80.0219 68.3207 80.4094 68.3724L82.0497 68.6048V71.6529H82.0755ZM41.1595 65.8151C40.785 65.4406 40.165 65.4406 39.7905 65.8151C39.4159 66.1896 39.4159 66.8096 39.7905 67.1841L41.7536 69.1473H16.5298C9.58134 69.1473 3.93731 63.5032 3.93731 56.5547C3.93731 49.6063 9.58134 43.9622 16.5298 43.9622C17.0594 43.9622 17.4985 43.5231 17.4985 42.9936C17.4985 42.464 17.0594 42.0249 16.5298 42.0249C8.52228 42.0249 2 48.5472 2 56.5547C2 64.5623 8.52228 71.0846 16.5298 71.0846H41.7407L39.7776 73.0477C39.403 73.4223 39.403 74.0422 39.7776 74.4168C39.9713 74.6105 40.2167 74.7009 40.4621 74.7009C40.7075 74.7009 40.9529 74.6105 41.1466 74.4168L44.7629 70.8005C44.9443 70.6188 45.0462 70.3726 45.0462 70.1159C45.0462 69.8592 44.9443 69.613 44.7629 69.4314L41.1595 65.8151Z" fill="#FFAE40"/>
</g>
</svg>
