<svg width="30" height="30" viewBox="0 0 30 30" fill="none" xmlns="http://www.w3.org/2000/svg">
<g id="Icon=Job, Status=:active">
<path id="Vector" d="M4.98295 11.2384C4.77462 11.2384 4.5947 11.1512 4.44318 10.9767C4.29167 10.8023 4.21591 10.5988 4.21591 10.3663C4.21591 10.1337 4.29167 9.93023 4.44318 9.75581C4.5947 9.5814 4.77462 9.49419 4.98295 9.49419H9.21591C9.76515 9.49419 10.1913 9.6686 10.4943 10.0174C10.7973 10.3663 10.9962 10.7733 11.0909 11.2384H4.98295ZM7.34091 24C5.8447 24 4.58049 23.4622 3.5483 22.3866C2.5161 21.311 2 20.0078 2 18.4767C2 16.9457 2.52557 15.6424 3.5767 14.5669C4.62784 13.4913 5.90152 12.9535 7.39773 12.9535C8.00379 12.9535 8.60985 13.0601 9.21591 13.2733C9.82197 13.4864 10.3712 13.8062 10.8636 14.2326H12.8239C13.6193 14.2326 14.2869 13.9467 14.8267 13.375C15.3665 12.8033 15.6364 12.1105 15.6364 11.2965V8.27326L14.2443 6.87791L12.5114 8.65116L11.9716 8.12791L16.0057 4L16.517 4.52326L14.7557 6.32558L16.1477 7.75H23.875C24.3674 7.75 24.7746 7.91473 25.0966 8.24419C25.4186 8.57364 25.5795 8.99031 25.5795 9.49419V17.0233C26.0152 17.4109 26.3608 17.8663 26.6165 18.3895C26.8722 18.9128 27 19.4748 27 20.0756C27 21.1609 26.6259 22.0862 25.8778 22.8517C25.1297 23.6172 24.2254 24 23.1648 24C22.1042 24 21.1998 23.6172 20.4517 22.8517C19.7036 22.0862 19.3295 21.1899 19.3295 20.1628C19.3295 20.0465 19.3343 19.906 19.3438 19.7413C19.3532 19.5765 19.3674 19.4457 19.3864 19.3488H12.7386C12.5303 20.686 11.9242 21.7955 10.9205 22.6773C9.91667 23.5591 8.72348 24 7.34091 24ZM7.39773 22.2558C8.42045 22.2558 9.29167 21.8876 10.0114 21.1512C10.7311 20.4147 11.0909 19.5233 11.0909 18.4767C11.0909 17.4302 10.7311 16.5388 10.0114 15.8023C9.29167 15.0659 8.42045 14.6977 7.39773 14.6977C6.375 14.6977 5.50379 15.0659 4.78409 15.8023C4.06439 16.5388 3.70455 17.4302 3.70455 18.4767C3.70455 19.5233 4.06439 20.4147 4.78409 21.1512C5.50379 21.8876 6.375 22.2558 7.39773 22.2558ZM23.1648 22.2558C23.7519 22.2558 24.2538 22.0426 24.6705 21.6163C25.0871 21.1899 25.2955 20.6764 25.2955 20.0756C25.2955 19.4748 25.0871 18.9612 24.6705 18.5349C24.2538 18.1085 23.7519 17.8953 23.1648 17.8953C22.5777 17.8953 22.0758 18.1085 21.6591 18.5349C21.2424 18.9612 21.0341 19.4748 21.0341 20.0756C21.0341 20.6764 21.2424 21.1899 21.6591 21.6163C22.0758 22.0426 22.5777 22.2558 23.1648 22.2558ZM7.39773 20.5116C6.84848 20.5116 6.37973 20.313 5.99148 19.9157C5.60322 19.5184 5.40909 19.0388 5.40909 18.4767C5.40909 17.9147 5.60322 17.4351 5.99148 17.0378C6.37973 16.6405 6.84848 16.4419 7.39773 16.4419C7.94697 16.4419 8.41572 16.6405 8.80398 17.0378C9.19223 17.4351 9.38636 17.9147 9.38636 18.4767C9.38636 19.0388 9.19223 19.5184 8.80398 19.9157C8.41572 20.313 7.94697 20.5116 7.39773 20.5116ZM12.7386 17.5756H20.2102C20.5511 17.1492 20.9915 16.8052 21.5312 16.5436C22.071 16.282 22.6439 16.1512 23.25 16.1512H23.875V9.49419H17.3409V11.2965C17.3409 12.5562 16.8958 13.6512 16.0057 14.5814C15.1155 15.5116 14.0549 15.9767 12.8239 15.9767H12.2273C12.322 16.1705 12.4167 16.4079 12.5114 16.689C12.6061 16.97 12.6818 17.2655 12.7386 17.5756Z" fill="#262B31"/>
</g>
</svg>
