<svg width="40" height="40" viewBox="0 0 40 40" fill="none" xmlns="http://www.w3.org/2000/svg">
<rect x="1" y="1" width="38" height="38" rx="7" fill="white"/>
<rect x="1" y="1" width="38" height="38" rx="7" stroke="#CACACA" stroke-width="2"/>
<path d="M20.8034 10.3584H19.1962C19.0534 10.3584 18.9819 10.4298 18.9819 10.5727V18.9834H11.0004C10.8576 18.9834 10.7861 19.0548 10.7861 19.1977V20.8048C10.7861 20.9477 10.8576 21.0191 11.0004 21.0191H18.9819V29.4298C18.9819 29.5727 19.0534 29.6441 19.1962 29.6441H20.8034C20.9462 29.6441 21.0176 29.5727 21.0176 29.4298V21.0191H29.0004C29.1433 21.0191 29.2147 20.9477 29.2147 20.8048V19.1977C29.2147 19.0548 29.1433 18.9834 29.0004 18.9834H21.0176V10.5727C21.0176 10.4298 20.9462 10.3584 20.8034 10.3584Z" fill="#CACACA"/>
</svg>
