<svg width="20" height="20" viewBox="0 0 20 20" fill="none" xmlns="http://www.w3.org/2000/svg">
<g id="PlusCircle" clipPath="url(#clip0_771_6748)">
<g id="Vector">
<path d="M14.107 9.28676H10.7141V5.8939C10.7141 5.79569 10.6338 5.71533 10.5355 5.71533H9.46411C9.3659 5.71533 9.28554 5.79569 9.28554 5.8939V9.28676H5.89268C5.79447 9.28676 5.71411 9.36712 5.71411 9.46533V10.5368C5.71411 10.635 5.79447 10.7153 5.89268 10.7153H9.28554V14.1082C9.28554 14.2064 9.3659 14.2868 9.46411 14.2868H10.5355C10.6338 14.2868 10.7141 14.2064 10.7141 14.1082V10.7153H14.107C14.2052 10.7153 14.2855 10.635 14.2855 10.5368V9.46533C14.2855 9.36712 14.2052 9.28676 14.107 9.28676Z" fill="#464F59"/>
<path d="M10 0C4.47768 0 0 4.47768 0 10C0 15.5223 4.47768 20 10 20C15.5223 20 20 15.5223 20 10C20 4.47768 15.5223 0 10 0ZM10 18.3036C5.41518 18.3036 1.69643 14.5848 1.69643 10C1.69643 5.41518 5.41518 1.69643 10 1.69643C14.5848 1.69643 18.3036 5.41518 18.3036 10C18.3036 14.5848 14.5848 18.3036 10 18.3036Z" fill="#464F59"/>
</g>
</g>
<defs>
<clipPath id="clip0_771_6748">
<rect width="20" height="20" fill="white"/>
</clipPath>
</defs>
</svg>
