<svg width="24" height="24" viewBox="0 0 24 24" fill="none" xmlns="http://www.w3.org/2000/svg">
<g id="Retweet">
<path id="Vector" d="M2.20828 13.0417H3.8641C3.97865 13.0417 4.07238 12.9479 4.07238 12.8333V6.1849H17.8344V8.07553C17.8344 8.125 17.85 8.17188 17.8813 8.21094C17.8988 8.23344 17.9206 8.25223 17.9455 8.26625C17.9703 8.28027 17.9977 8.28923 18.026 8.29262C18.0543 8.29601 18.083 8.29376 18.1105 8.286C18.1379 8.27824 18.1635 8.26512 18.1859 8.2474L21.9167 5.31771C22.0286 5.18751 22.0104 5.04948 21.9167 4.97396L18.1859 2.04688C18.1475 2.01616 18.0997 1.99961 18.0505 2.00001C17.9307 2.00001 17.8318 2.09897 17.8318 2.21876V4.10938H3.8667C2.83832 4.10938 2 4.94792 2 5.97917V12.8333C2 12.9479 2.09373 13.0417 2.20828 13.0417ZM21.7865 10.9583H20.1307C20.0161 10.9583 19.9224 11.0521 19.9224 11.1667V17.8151H6.16037V15.9245C6.16037 15.875 6.14475 15.8281 6.11351 15.7891C6.09597 15.7666 6.07415 15.7478 6.04932 15.7338C6.02448 15.7197 5.99711 15.7108 5.9688 15.7074C5.94048 15.704 5.91177 15.7062 5.88433 15.714C5.85689 15.7218 5.83125 15.7349 5.8089 15.7526L2.0781 18.6823C1.96615 18.8125 1.98438 18.9505 2.0781 19.026L5.8089 21.9531C5.84796 21.9844 5.89482 22 5.94429 22C6.06405 22 6.16298 21.901 6.16298 21.7812V19.8906H20.1333C21.1617 19.8906 22 19.0521 22 18.0208V11.1667C21.9948 11.0521 21.9011 10.9583 21.7865 10.9583Z" fill="#464F59"/>
</g>
</svg>
