<svg width="30" height="30" viewBox="0 0 30 30" fill="none" xmlns="http://www.w3.org/2000/svg">
<g id="Icon=Staff, Status=:active">
<path id="Vector" d="M2 23V20.124C2 19.4101 2.16968 18.7625 2.50905 18.1812C2.84842 17.5998 3.31976 17.1664 3.92308 16.8808C5.2994 16.2281 6.53903 15.759 7.64197 15.4734C8.74491 15.1879 9.88085 15.0451 11.0498 15.0451C12.2187 15.0451 13.3499 15.1879 14.4434 15.4734C15.537 15.759 16.7719 16.2281 18.1482 16.8808C18.7515 17.1664 19.2276 17.5998 19.5764 18.1812C19.9252 18.7625 20.0995 19.4101 20.0995 20.124V23H2ZM21.7964 23V20.124C21.7964 18.839 21.4947 17.7834 20.8914 16.9573C20.2881 16.1312 19.4962 15.4632 18.5158 14.9533C19.8167 15.1165 21.0422 15.3561 22.1923 15.6723C23.3424 15.9885 24.2756 16.3505 24.9921 16.7585C25.6143 17.146 26.1045 17.6253 26.4627 18.1965C26.8209 18.7676 27 19.4101 27 20.124V23H21.7964ZM11.0498 13.1787C9.80543 13.1787 8.78733 12.7504 7.99548 11.8937C7.20362 11.037 6.80769 9.93559 6.80769 8.58937C6.80769 7.24316 7.20362 6.14171 7.99548 5.28502C8.78733 4.42834 9.80543 4 11.0498 4C12.2941 4 13.3122 4.42834 14.1041 5.28502C14.8959 6.14171 15.2919 7.24316 15.2919 8.58937C15.2919 9.93559 14.8959 11.037 14.1041 11.8937C13.3122 12.7504 12.2941 13.1787 11.0498 13.1787ZM21.2308 8.58937C21.2308 9.93559 20.8348 11.037 20.043 11.8937C19.2511 12.7504 18.233 13.1787 16.9887 13.1787C16.7813 13.1787 16.5503 13.1634 16.2958 13.1329C16.0413 13.1023 15.8103 13.0462 15.6029 12.9646C16.0554 12.4546 16.3995 11.8274 16.6352 11.0829C16.8709 10.3384 16.9887 9.50725 16.9887 8.58937C16.9887 7.6715 16.8709 6.86071 16.6352 6.15701C16.3995 5.4533 16.0554 4.80569 15.6029 4.21417C15.8103 4.15298 16.0413 4.10199 16.2958 4.06119C16.5503 4.0204 16.7813 4 16.9887 4C18.233 4 19.2511 4.42834 20.043 5.28502C20.8348 6.14171 21.2308 7.24316 21.2308 8.58937ZM3.69683 21.1643H18.4027V20.124C18.4027 19.7976 18.3132 19.4815 18.1341 19.1755C17.9549 18.8696 17.7334 18.6554 17.4695 18.533C16.112 17.8803 14.9713 17.4418 14.0475 17.2174C13.1237 16.993 12.1244 16.8808 11.0498 16.8808C9.97511 16.8808 8.97115 16.993 8.0379 17.2174C7.10464 17.4418 5.95928 17.8803 4.60181 18.533C4.33786 18.6554 4.12104 18.8696 3.95136 19.1755C3.78167 19.4815 3.69683 19.7976 3.69683 20.124V21.1643ZM11.0498 11.343C11.7851 11.343 12.3931 11.0829 12.8739 10.5628C13.3546 10.0427 13.595 9.38486 13.595 8.58937C13.595 7.79388 13.3546 7.13607 12.8739 6.61594C12.3931 6.09581 11.7851 5.83575 11.0498 5.83575C10.3145 5.83575 9.70645 6.09581 9.22568 6.61594C8.74491 7.13607 8.50453 7.79388 8.50453 8.58937C8.50453 9.38486 8.74491 10.0427 9.22568 10.5628C9.70645 11.0829 10.3145 11.343 11.0498 11.343Z" fill="#262B31"/>
</g>
</svg>
