<svg width="30" height="30" viewBox="0 0 30 30" fill="none" xmlns="http://www.w3.org/2000/svg">
<g id="Icon=work_history_FILL0_wght400_GRAD0_opsz48 1, Status=active">
<path id="Vector" d="M4.72869 24.8968C4.26771 24.8968 3.86435 24.7239 3.51861 24.3781C3.17287 24.0324 3 23.6291 3 23.1681V8.96399C3 8.503 3.17287 8.09964 3.51861 7.7539C3.86435 7.40816 4.26771 7.23529 4.72869 7.23529H10.2029V4.72869C10.2029 4.28691 10.3757 3.88836 10.7215 3.53301C11.0672 3.17767 11.4706 3 11.9316 3H17.1176C17.5786 3 17.982 3.17767 18.3277 3.53301C18.6735 3.88836 18.8463 4.28691 18.8463 4.72869V7.23529H24.3205C24.7815 7.23529 25.1849 7.40816 25.5306 7.7539C25.8763 8.09964 26.0492 8.503 26.0492 8.96399V15.8211C25.7803 15.6098 25.5066 15.4178 25.2281 15.2449C24.9496 15.072 24.6471 14.9088 24.3205 14.7551V8.96399H4.72869V23.1825V23.1681H14.3517C14.4286 23.4754 14.5246 23.7731 14.6399 24.0612C14.7551 24.3493 14.8896 24.6278 15.0432 24.8968H4.72869ZM11.9316 7.23529H17.1176V4.72869H11.9316V7.23529ZM21.4394 27C19.922 27 18.6158 26.4526 17.521 25.3577C16.4262 24.2629 15.8788 22.9568 15.8788 21.4394C15.8788 19.922 16.4262 18.6158 17.521 17.521C18.6158 16.4262 19.922 15.8788 21.4394 15.8788C22.9568 15.8788 24.2629 16.4262 25.3577 17.521C26.4526 18.6158 27 19.922 27 21.4394C27 22.9568 26.4526 24.2629 25.3577 25.3577C24.2629 26.4526 22.9568 27 21.4394 27ZM23.5714 24.3493L24.3493 23.5714L21.9292 21.3818V17.8091H20.7191V21.7275L23.5714 24.3493Z" fill="#262B31"/>
</g>
</svg>
